<svg version="1.1" xmlns="http://www.w3.org/2000/svg" xmlns:xlink="http://www.w3.org/1999/xlink" width="79.4577" height="135.58819" viewBox="0,0,79.4577,135.58819"><g transform="translate(-200.27115,-112.2059)"><g data-paper-data="{&quot;isPaintingLayer&quot;:true}" fill-rule="nonzero" stroke-linejoin="miter" stroke-miterlimit="10" stroke-dasharray="" stroke-dashoffset="0" style="mix-blend-mode: normal"><g><path d="M200.27115,247.7941v-76.40443h79.4577v76.40443z" fill="#ff0000" stroke="none" stroke-width="none" stroke-linecap="butt"/><g fill="#ffffff" stroke="none" stroke-width="0" stroke-linecap="butt"><path d="M213.30748,218.76485c0,-2.21911 1.79894,-4.01805 4.01805,-4.01805c2.21911,0 4.01806,1.79895 4.01806,4.01805c0,2.21911 -1.79895,4.01806 -4.01806,4.01806c-2.21911,0 -4.01805,-1.79895 -4.01805,-4.01806z"/><path d="M201.9624,229.51904c0,-1.6317 1.32276,-2.95445 2.95445,-2.95445c1.6317,0 2.95445,1.32276 2.95445,2.95445c0,1.6317 -1.32276,2.95445 -2.95445,2.95445c-1.6317,0 -2.95445,-1.32276 -2.95445,-2.95445z"/><path d="M207.67146,224.82845c0,-1.6317 1.32276,-2.95445 2.95445,-2.95445c1.6317,0 2.95445,1.32276 2.95445,2.95445c0,1.6317 -1.32276,2.95445 -2.95445,2.95445c-1.6317,0 -2.95445,-1.32275 -2.95445,-2.95445z"/></g><g fill="#ffffff" stroke="none" stroke-width="0" stroke-linecap="butt"><path d="M235.3251,199.8929c0,-2.21911 1.79894,-4.01805 4.01805,-4.01805c2.21911,0 4.01806,1.79895 4.01806,4.01805c0,2.21911 -1.79895,4.01806 -4.01806,4.01806c-2.21911,0 -4.01805,-1.79895 -4.01805,-4.01806z"/><path d="M223.98002,210.64709c0,-1.6317 1.32275,-2.95445 2.95445,-2.95445c1.6317,0 2.95445,1.32275 2.95445,2.95445c0,1.6317 -1.32276,2.95445 -2.95445,2.95445c-1.6317,0 -2.95445,-1.32276 -2.95445,-2.95445z"/><path d="M229.68909,205.9565c0,-1.6317 1.32276,-2.95445 2.95445,-2.95445c1.6317,0 2.95445,1.32276 2.95445,2.95445c0,1.6317 -1.32275,2.95445 -2.95445,2.95445c-1.6317,0 -2.95445,-1.32276 -2.95445,-2.95445z"/></g><g data-paper-data="{&quot;index&quot;:null}" fill="#ffffff" stroke="none" stroke-width="0" stroke-linecap="butt"><path d="M239.37968,203.71112c-2.21911,0 -4.01806,-1.79895 -4.01806,-4.01806c0,-2.21911 1.79895,-4.01805 4.01806,-4.01805c2.21911,0 4.01805,1.79894 4.01805,4.01805c0,2.21911 -1.79894,4.01806 -4.01805,4.01806z"/><path d="M251.78836,213.40171c-1.63169,0 -2.95445,-1.32276 -2.95445,-2.95445c0,-1.6317 1.32275,-2.95445 2.95445,-2.95445c1.6317,0 2.95445,1.32276 2.95445,2.95445c0,1.6317 -1.32276,2.95445 -2.95445,2.95445z"/><path d="M246.07929,208.71112c-1.6317,0 -2.95445,-1.32275 -2.95445,-2.95445c0,-1.6317 1.32275,-2.95445 2.95445,-2.95445c1.6317,0 2.95445,1.32276 2.95445,2.95445c0,1.6317 -1.32276,2.95445 -2.95445,2.95445z"/></g><g data-paper-data="{&quot;index&quot;:null}" fill="#ffffff" stroke="#000000" stroke-width="0" stroke-linecap="butt"><path d="M262.81544,222.65612c-2.21911,0 -4.01806,-1.79895 -4.01806,-4.01806c0,-2.21911 1.79895,-4.01805 4.01806,-4.01805c2.21911,0 4.01805,1.79894 4.01805,4.01805c0,2.21911 -1.79894,4.01806 -4.01805,4.01806z"/><path d="M275.22412,232.34671c-1.6317,0 -2.95445,-1.32276 -2.95445,-2.95445c0,-1.6317 1.32276,-2.95445 2.95445,-2.95445c1.63169,0 2.95445,1.32276 2.95445,2.95445c0,1.6317 -1.32276,2.95445 -2.95445,2.95445z"/><path d="M269.51505,227.65612c-1.63169,0 -2.95445,-1.32276 -2.95445,-2.95445c0,-1.6317 1.32276,-2.95445 2.95445,-2.95445c1.6317,0 2.95445,1.32275 2.95445,2.95445c0,1.6317 -1.32276,2.95445 -2.95445,2.95445z"/></g><path d="M200.86377,224.62843c0,-0.66526 0.5393,-1.20455 1.20455,-1.20455c0.66526,0 1.20456,0.5393 1.20456,1.20455c0,0.66526 -0.5393,1.20455 -1.20456,1.20455c-0.66526,0 -1.20455,-0.5393 -1.20455,-1.20455z" fill="#ffffff" stroke="none" stroke-width="0" stroke-linecap="butt"/><path d="M208.89371,230.38592c0,-0.66526 0.5393,-1.20455 1.20455,-1.20455c0.66526,0 1.20456,0.5393 1.20456,1.20455c0,0.66526 -0.5393,1.20455 -1.20456,1.20455c-0.66526,0 -1.20455,-0.5393 -1.20455,-1.20455z" fill="#ffffff" stroke="none" stroke-width="0" stroke-linecap="butt"/><path d="M208.21258,219.66811c0,-0.66526 0.5393,-1.20455 1.20455,-1.20455c0.66526,0 1.20456,0.5393 1.20456,1.20455c0,0.66526 -0.5393,1.20455 -1.20456,1.20455c-0.66526,0 -1.20455,-0.5393 -1.20455,-1.20455z" fill="#ffffff" stroke="none" stroke-width="0" stroke-linecap="butt"/><path d="M219.08308,224.66811c0,-0.66526 0.5393,-1.20455 1.20455,-1.20455c0.66526,0 1.20456,0.5393 1.20456,1.20455c0,0.66526 -0.5393,1.20455 -1.20456,1.20455c-0.66526,0 -1.20455,-0.5393 -1.20455,-1.20455z" fill="#ffffff" stroke="none" stroke-width="0" stroke-linecap="butt"/><path d="M218.40195,212.81408c0,-0.66526 0.5393,-1.20455 1.20455,-1.20455c0.66526,0 1.20456,0.5393 1.20456,1.20455c0,0.66526 -0.5393,1.20456 -1.20456,1.20456c-0.66526,0 -1.20455,-0.5393 -1.20455,-1.20456z" fill="#ffffff" stroke="none" stroke-width="0" stroke-linecap="butt"/><path d="M223.40195,217.81408c0,-0.66526 0.5393,-1.20455 1.20455,-1.20455c0.66526,0 1.20456,0.5393 1.20456,1.20455c0,0.66526 -0.5393,1.20456 -1.20456,1.20456c-0.66526,0 -1.20455,-0.5393 -1.20455,-1.20456z" fill="#ffffff" stroke="none" stroke-width="0" stroke-linecap="butt"/><path d="M231.24251,214.29238c0,-0.66526 0.5393,-1.20455 1.20455,-1.20455c0.66526,0 1.20456,0.5393 1.20456,1.20455c0,0.66526 -0.5393,1.20455 -1.20456,1.20455c-0.66526,0 -1.20455,-0.5393 -1.20455,-1.20455z" fill="#ffffff" stroke="none" stroke-width="0" stroke-linecap="butt"/><path d="M224.88024,205.08955c0,-0.66526 0.5393,-1.20455 1.20456,-1.20455c0.66526,0 1.20456,0.5393 1.20456,1.20455c0,0.66526 -0.5393,1.20455 -1.20456,1.20455c-0.66526,0 -1.20456,-0.5393 -1.20456,-1.20455z" fill="#ffffff" stroke="none" stroke-width="0" stroke-linecap="butt"/><path d="M236.12949,210.08955c0,-0.66526 0.5393,-1.20455 1.20455,-1.20455c0.66526,0 1.20456,0.5393 1.20456,1.20455c0,0.66526 -0.5393,1.20455 -1.20456,1.20455c-0.66526,0 -1.20455,-0.5393 -1.20455,-1.20455z" fill="#ffffff" stroke="none" stroke-width="0" stroke-linecap="butt"/><path d="M229.76722,200.88671c0,-0.66526 0.5393,-1.20455 1.20455,-1.20455c0.66526,0 1.20456,0.5393 1.20456,1.20455c0,0.66526 -0.5393,1.20455 -1.20456,1.20455c-0.66526,0 -1.20455,-0.5393 -1.20455,-1.20455z" fill="#ffffff" stroke="none" stroke-width="0" stroke-linecap="butt"/><path d="M237.60778,192.44136c0,-0.66526 0.5393,-1.20455 1.20455,-1.20455c0.66526,0 1.20456,0.5393 1.20456,1.20455c0,0.66526 -0.5393,1.20455 -1.20456,1.20455c-0.66526,0 -1.20455,-0.5393 -1.20455,-1.20455z" fill="#ffffff" stroke="none" stroke-width="0" stroke-linecap="butt"/><path d="M240.71407,209.56111c0,-0.66526 0.5393,-1.20455 1.20455,-1.20455c0.66526,0 1.20456,0.5393 1.20456,1.20455c0,0.66526 -0.5393,1.20455 -1.20456,1.20455c-0.66526,0 -1.20455,-0.5393 -1.20455,-1.20455z" fill="#ffffff" stroke="none" stroke-width="0" stroke-linecap="butt"/><path d="M245.71407,214.56111c0,-0.66526 0.5393,-1.20455 1.20455,-1.20455c0.66526,0 1.20456,0.5393 1.20456,1.20455c0,0.66526 -0.5393,1.20455 -1.20456,1.20455c-0.66526,0 -1.20455,-0.5393 -1.20455,-1.20455z" fill="#ffffff" stroke="none" stroke-width="0" stroke-linecap="butt"/><path d="M260.75074,224.67413c0,-0.66526 0.53929,-1.20455 1.20455,-1.20455c0.66526,0 1.20456,0.5393 1.20456,1.20455c0,0.66526 -0.5393,1.20455 -1.20456,1.20455c-0.66526,0 -1.20455,-0.5393 -1.20455,-1.20455z" fill="#ffffff" stroke="none" stroke-width="0" stroke-linecap="butt"/><path d="M265.75074,229.67413c0,-0.66526 0.53929,-1.20455 1.20455,-1.20455c0.66526,0 1.20456,0.5393 1.20456,1.20455c0,0.66526 -0.5393,1.20455 -1.20456,1.20455c-0.66526,0 -1.20455,-0.5393 -1.20455,-1.20455z" fill="#ffffff" stroke="none" stroke-width="0" stroke-linecap="butt"/><path d="M270.75074,233.72728c0,-0.66526 0.53929,-1.20455 1.20455,-1.20455c0.66526,0 1.20456,0.5393 1.20456,1.20455c0,0.66526 -0.5393,1.20455 -1.20456,1.20455c-0.66526,0 -1.20455,-0.5393 -1.20455,-1.20455z" fill="#ffffff" stroke="none" stroke-width="0" stroke-linecap="butt"/><path d="M275.75074,223.19885c0,-0.66526 0.53929,-1.20455 1.20455,-1.20455c0.66526,0 1.20456,0.5393 1.20456,1.20455c0,0.66526 -0.5393,1.20455 -1.20456,1.20455c-0.66526,0 -1.20455,-0.5393 -1.20455,-1.20455z" fill="#ffffff" stroke="none" stroke-width="0" stroke-linecap="butt"/><path d="M268.25224,218.54092c0,-0.66526 0.5393,-1.20455 1.20456,-1.20455c0.66526,0 1.20456,0.5393 1.20456,1.20455c0,0.66526 -0.5393,1.20455 -1.20456,1.20455c-0.66526,0 -1.20456,-0.5393 -1.20456,-1.20455z" fill="#ffffff" stroke="none" stroke-width="0" stroke-linecap="butt"/><path d="M261.88997,212.17865c0,-0.66526 0.5393,-1.20455 1.20456,-1.20455c0.66526,0 1.20456,0.5393 1.20456,1.20455c0,0.66526 -0.5393,1.20455 -1.20456,1.20455c-0.66526,0 -1.20456,-0.5393 -1.20456,-1.20455z" fill="#ffffff" stroke="none" stroke-width="0" stroke-linecap="butt"/><path d="M250.79343,204.11204c0,-0.66526 0.5393,-1.20455 1.20455,-1.20455c0.66526,0 1.20456,0.5393 1.20456,1.20455c0,0.66526 -0.5393,1.20455 -1.20456,1.20455c-0.66526,0 -1.20455,-0.5393 -1.20455,-1.20455z" fill="#ffffff" stroke="none" stroke-width="0" stroke-linecap="butt"/><path d="M244.43116,200.02223c0,-0.66526 0.5393,-1.20455 1.20455,-1.20455c0.66526,0 1.20456,0.5393 1.20456,1.20455c0,0.66526 -0.5393,1.20455 -1.20456,1.20455c-0.66526,0 -1.20455,-0.5393 -1.20455,-1.20455z" fill="#ffffff" stroke="none" stroke-width="0" stroke-linecap="butt"/><path d="M202.53144,235.38592c0,-0.66526 0.5393,-1.20455 1.20455,-1.20455c0.66526,0 1.20456,0.5393 1.20456,1.20455c0,0.66526 -0.5393,1.20455 -1.20456,1.20455c-0.66526,0 -1.20455,-0.5393 -1.20455,-1.20455z" fill="#ffffff" stroke="none" stroke-width="0" stroke-linecap="butt"/><path d="M255.47923,219.40262c0,-0.66526 0.53929,-1.20455 1.20455,-1.20455c0.66526,0 1.20456,0.5393 1.20456,1.20455c0,0.66526 -0.5393,1.20455 -1.20456,1.20455c-0.66526,0 -1.20455,-0.5393 -1.20455,-1.20455z" fill="#ffffff" stroke="none" stroke-width="0" stroke-linecap="butt"/><path d="M255.45759,211.16378c0,-0.66526 0.5393,-1.20455 1.20455,-1.20455c0.66526,0 1.20456,0.5393 1.20456,1.20455c0,0.66526 -0.5393,1.20455 -1.20456,1.20455c-0.66526,0 -1.20455,-0.5393 -1.20455,-1.20455z" fill="#ffffff" stroke="none" stroke-width="0" stroke-linecap="butt"/><g fill="none" stroke="#ffffff" stroke-width="1.25" stroke-linecap="round"><path d="M219.29577,185.85327v8.90198"/><path d="M223.74676,190.30426h-8.90198"/><path d="M222.44309,187.15694l-6.29465,6.29465"/><path d="M222.44309,193.45159l-6.29465,-6.29465"/></g><g fill="none" stroke="#ffffff" stroke-width="1.25" stroke-linecap="round"><path d="M251.0017,179.66873v8.90198"/><path d="M255.45269,184.11972h-8.90198"/><path d="M254.14903,180.9724l-6.29465,6.29465"/><path d="M254.14903,187.26705l-6.29465,-6.29465"/></g><g fill="none" stroke="#ffffff" stroke-width="1.25" stroke-linecap="round"><path d="M261.25158,195.85327v6.61942"/><path d="M264.56129,199.16298h-6.61942"/><path d="M263.5919,196.82266l-4.68064,4.68063"/><path d="M263.5919,201.5033l-4.68064,-4.68063"/></g><g fill="none" stroke="#ffffff" stroke-width="1.25" stroke-linecap="round"><path d="M231.21431,175.28861v8.67372"/><path d="M235.55117,179.62548h-8.67373"/><path d="M234.28094,176.55885l-6.13325,6.13324"/><path d="M234.28094,182.6921l-6.13325,-6.13324"/></g><g fill="none" stroke="#ffffff" stroke-width="1.25" stroke-linecap="round"><path d="M209.05186,203.79897v5.02163"/><path d="M211.56268,206.30978h-5.02163"/><path d="M210.82728,204.53437l-3.55083,3.55083"/><path d="M210.82728,208.0852l-3.55083,-3.55083"/></g><g fill="none" stroke="#ffffff" stroke-width="1.25" stroke-linecap="round"><path d="M273.39838,180.7235v5.02163"/><path d="M275.9092,183.23431h-5.02163"/><path d="M275.1738,181.4589l-3.55083,3.55083"/><path d="M275.1738,185.00973l-3.55083,-3.55083"/></g><g fill="none" stroke="#ffffff" stroke-width="1.25" stroke-linecap="round"><path d="M230.92117,189.60385v5.02163"/><path d="M233.43198,192.11466h-5.02163"/><path d="M232.69658,190.33925l-3.55083,3.55083"/><path d="M232.69658,193.89008l-3.55083,-3.55083"/></g><g fill="none" stroke="#ffffff" stroke-width="1.25" stroke-linecap="round"><path d="M218.60639,173.86512v5.02163"/><path d="M221.11721,176.37594h-5.02163"/><path d="M220.38181,174.60052l-3.55083,3.55083"/><path d="M220.38181,178.15135l-3.55083,-3.55083"/></g><g fill="none" stroke="#ffffff" stroke-width="1.25" stroke-linecap="round"><path d="M236.5843,217.86432v5.02163"/><path d="M239.09512,220.37513h-5.02163"/><path d="M238.35972,218.59972l-3.55083,3.55083"/><path d="M238.35972,222.15055l-3.55083,-3.55083"/></g><g fill="none" stroke="#ffffff" stroke-width="1.25" stroke-linecap="round"><path d="M247.12135,222.35258v8.90198"/><path d="M251.57234,226.80357h-8.90198"/><path d="M250.26867,223.65625l-6.29465,6.29465"/><path d="M250.26867,229.9509l-6.29465,-6.29465"/></g><g fill="none" stroke="#ffffff" stroke-width="1.25" stroke-linecap="round"><path d="M219.48077,229.40689v8.90198"/><path d="M223.93176,233.85788h-8.90198"/><path d="M222.62809,230.71055l-6.29465,6.29465"/><path d="M222.62809,237.0052l-6.29465,-6.29465"/></g><g fill="none" stroke="#ffffff" stroke-width="1.25" stroke-linecap="round"><path d="M231.32844,227.33095v6.61942"/><path d="M234.63815,230.64066h-6.61942"/><path d="M233.66876,228.30034l-4.68064,4.68063"/><path d="M233.66876,232.98098l-4.68064,-4.68063"/></g><g fill="none" stroke="#ffffff" stroke-width="1.25" stroke-linecap="round"><path d="M258.96902,229.40688v8.90198"/><path d="M263.42001,233.85787h-8.90198"/><path d="M262.11635,230.71055l-6.29465,6.29465"/><path d="M262.11635,237.0052l-6.29465,-6.29465"/></g><g fill="none" stroke="#ffffff" stroke-width="1.25" stroke-linecap="round"><path d="M272.18624,201.99455v6.61942"/><path d="M275.49595,205.30426h-6.61942"/><path d="M274.52656,202.96394l-4.68064,4.68063"/><path d="M274.52656,207.64458l-4.68064,-4.68063"/></g><g fill="none" stroke="#ffffff" stroke-width="1.25" stroke-linecap="round"><path d="M207.33995,190.33187v6.61942"/><path d="M210.64966,193.64158h-6.61942"/><path d="M209.68027,191.30126l-4.68064,4.68063"/><path d="M209.68027,195.9819l-4.68064,-4.68063"/></g><path d="M200.27115,244.47059v-1.83331h79.4577v1.83331z" fill="#ffffff" stroke="none" stroke-width="none" stroke-linecap="butt"/><path d="M279.72885,112.2059v60.65443h-79.4577v-60.65443z" fill="#ff0000" stroke="none" stroke-width="none" stroke-linecap="butt"/><g fill="#ffffff" stroke="none" stroke-width="0" stroke-linecap="butt"><path d="M266.69252,141.23515c0,2.21911 -1.79895,4.01805 -4.01805,4.01805c-2.21911,0 -4.01806,-1.79895 -4.01806,-4.01805c0,-2.21911 1.79895,-4.01806 4.01806,-4.01806c2.21911,0 4.01805,1.79895 4.01805,4.01806z"/><path d="M278.0376,130.48096c0,1.6317 -1.32275,2.95445 -2.95445,2.95445c-1.6317,0 -2.95445,-1.32276 -2.95445,-2.95445c0,-1.6317 1.32276,-2.95445 2.95445,-2.95445c1.6317,0 2.95445,1.32276 2.95445,2.95445z"/><path d="M272.32854,135.17155c0,1.6317 -1.32275,2.95445 -2.95445,2.95445c-1.6317,0 -2.95445,-1.32276 -2.95445,-2.95445c0,-1.6317 1.32276,-2.95445 2.95445,-2.95445c1.6317,0 2.95445,1.32275 2.95445,2.95445z"/></g><g fill="#ffffff" stroke="none" stroke-width="0" stroke-linecap="butt"><path d="M244.67491,160.1071c0,2.21911 -1.79894,4.01805 -4.01805,4.01805c-2.21911,0 -4.01806,-1.79895 -4.01806,-4.01805c0,-2.21911 1.79895,-4.01806 4.01806,-4.01806c2.21911,0 4.01805,1.79895 4.01805,4.01806z"/><path d="M256.01998,149.35291c0,1.6317 -1.32275,2.95445 -2.95445,2.95445c-1.6317,0 -2.95445,-1.32275 -2.95445,-2.95445c0,-1.6317 1.32275,-2.95445 2.95445,-2.95445c1.6317,0 2.95445,1.32276 2.95445,2.95445z"/><path d="M250.31091,154.0435c0,1.6317 -1.32275,2.95445 -2.95445,2.95445c-1.6317,0 -2.95445,-1.32276 -2.95445,-2.95445c0,-1.6317 1.32275,-2.95445 2.95445,-2.95445c1.6317,0 2.95445,1.32276 2.95445,2.95445z"/></g><g data-paper-data="{&quot;index&quot;:null}" fill="#ffffff" stroke="none" stroke-width="0" stroke-linecap="butt"><path d="M240.62032,156.28888c2.21911,0 4.01806,1.79895 4.01806,4.01806c0,2.21911 -1.79895,4.01805 -4.01806,4.01805c-2.21911,0 -4.01805,-1.79894 -4.01805,-4.01805c0,-2.21911 1.79894,-4.01806 4.01805,-4.01806z"/><path d="M228.21164,146.59829c1.6317,0 2.95445,1.32276 2.95445,2.95445c0,1.6317 -1.32276,2.95445 -2.95445,2.95445c-1.6317,0 -2.95445,-1.32276 -2.95445,-2.95445c0,-1.6317 1.32275,-2.95445 2.95445,-2.95445z"/><path d="M233.92071,151.28888c1.6317,0 2.95445,1.32275 2.95445,2.95445c0,1.6317 -1.32275,2.95445 -2.95445,2.95445c-1.6317,0 -2.95445,-1.32276 -2.95445,-2.95445c0,-1.6317 1.32276,-2.95445 2.95445,-2.95445z"/></g><g data-paper-data="{&quot;index&quot;:null}" fill="#ffffff" stroke="#000000" stroke-width="0" stroke-linecap="butt"><path d="M217.18456,137.34388c2.21911,0 4.01806,1.79895 4.01806,4.01806c0,2.21911 -1.79895,4.01805 -4.01806,4.01805c-2.21911,0 -4.01805,-1.79894 -4.01805,-4.01805c0,-2.21911 1.79895,-4.01806 4.01805,-4.01806z"/><path d="M204.77588,127.65329c1.63169,0 2.95445,1.32276 2.95445,2.95445c0,1.6317 -1.32276,2.95445 -2.95445,2.95445c-1.6317,0 -2.95445,-1.32276 -2.95445,-2.95445c0,-1.6317 1.32275,-2.95445 2.95445,-2.95445z"/><path d="M210.48495,132.34388c1.6317,0 2.95445,1.32276 2.95445,2.95445c0,1.6317 -1.32275,2.95445 -2.95445,2.95445c-1.63169,0 -2.95445,-1.32275 -2.95445,-2.95445c0,-1.6317 1.32276,-2.95445 2.95445,-2.95445z"/></g><path d="M279.13623,135.37157c0,0.66526 -0.5393,1.20455 -1.20456,1.20455c-0.66526,0 -1.20456,-0.5393 -1.20456,-1.20455c0,-0.66526 0.5393,-1.20455 1.20456,-1.20455c0.66526,0 1.20456,0.5393 1.20456,1.20455z" fill="#ffffff" stroke="none" stroke-width="0" stroke-linecap="butt"/><path d="M271.10629,129.61408c0,0.66526 -0.5393,1.20455 -1.20456,1.20455c-0.66526,0 -1.20456,-0.5393 -1.20456,-1.20455c0,-0.66526 0.5393,-1.20455 1.20456,-1.20455c0.66526,0 1.20456,0.5393 1.20456,1.20455z" fill="#ffffff" stroke="none" stroke-width="0" stroke-linecap="butt"/><path d="M271.78742,140.33189c0,0.66526 -0.53929,1.20455 -1.20455,1.20455c-0.66526,0 -1.20456,-0.5393 -1.20456,-1.20455c0,-0.66526 0.5393,-1.20455 1.20456,-1.20455c0.66526,0 1.20455,0.5393 1.20455,1.20455z" fill="#ffffff" stroke="none" stroke-width="0" stroke-linecap="butt"/><path d="M260.91692,135.33189c0,0.66526 -0.5393,1.20455 -1.20456,1.20455c-0.66526,0 -1.20456,-0.5393 -1.20456,-1.20455c0,-0.66526 0.5393,-1.20455 1.20456,-1.20455c0.66526,0 1.20456,0.5393 1.20456,1.20455z" fill="#ffffff" stroke="none" stroke-width="0" stroke-linecap="butt"/><path d="M261.59805,147.18592c0,0.66526 -0.5393,1.20455 -1.20456,1.20455c-0.66526,0 -1.20456,-0.5393 -1.20456,-1.20455c0,-0.66526 0.5393,-1.20456 1.20456,-1.20456c0.66526,0 1.20456,0.5393 1.20456,1.20456z" fill="#ffffff" stroke="none" stroke-width="0" stroke-linecap="butt"/><path d="M256.59805,142.18592c0,0.66526 -0.5393,1.20455 -1.20455,1.20455c-0.66526,0 -1.20456,-0.5393 -1.20456,-1.20455c0,-0.66526 0.5393,-1.20456 1.20456,-1.20456c0.66526,0 1.20455,0.5393 1.20455,1.20456z" fill="#ffffff" stroke="none" stroke-width="0" stroke-linecap="butt"/><path d="M248.75749,145.70762c0,0.66526 -0.5393,1.20455 -1.20455,1.20455c-0.66526,0 -1.20456,-0.5393 -1.20456,-1.20455c0,-0.66526 0.5393,-1.20455 1.20456,-1.20455c0.66526,0 1.20455,0.5393 1.20455,1.20455z" fill="#ffffff" stroke="none" stroke-width="0" stroke-linecap="butt"/><path d="M255.11976,154.91045c0,0.66526 -0.5393,1.20455 -1.20456,1.20455c-0.66526,0 -1.20456,-0.5393 -1.20456,-1.20455c0,-0.66526 0.5393,-1.20455 1.20456,-1.20455c0.66526,0 1.20456,0.5393 1.20456,1.20455z" fill="#ffffff" stroke="none" stroke-width="0" stroke-linecap="butt"/><path d="M243.87052,149.91045c0,0.66526 -0.5393,1.20455 -1.20455,1.20455c-0.66526,0 -1.20456,-0.5393 -1.20456,-1.20455c0,-0.66526 0.5393,-1.20455 1.20456,-1.20455c0.66526,0 1.20455,0.5393 1.20455,1.20455z" fill="#ffffff" stroke="none" stroke-width="0" stroke-linecap="butt"/><path d="M250.23278,159.11329c0,0.66526 -0.53929,1.20455 -1.20455,1.20455c-0.66526,0 -1.20456,-0.5393 -1.20456,-1.20455c0,-0.66526 0.5393,-1.20455 1.20456,-1.20455c0.66526,0 1.20455,0.5393 1.20455,1.20455z" fill="#ffffff" stroke="none" stroke-width="0" stroke-linecap="butt"/><path d="M242.39222,167.55864c0,0.66526 -0.5393,1.20455 -1.20455,1.20455c-0.66526,0 -1.20456,-0.5393 -1.20456,-1.20455c0,-0.66526 0.5393,-1.20455 1.20456,-1.20455c0.66526,0 1.20455,0.5393 1.20455,1.20455z" fill="#ffffff" stroke="none" stroke-width="0" stroke-linecap="butt"/><path d="M239.28593,150.43889c0,0.66526 -0.5393,1.20455 -1.20455,1.20455c-0.66526,0 -1.20456,-0.5393 -1.20456,-1.20455c0,-0.66526 0.5393,-1.20455 1.20456,-1.20455c0.66526,0 1.20455,0.5393 1.20455,1.20455z" fill="#ffffff" stroke="none" stroke-width="0" stroke-linecap="butt"/><path d="M234.28593,145.43889c0,0.66526 -0.5393,1.20455 -1.20455,1.20455c-0.66526,0 -1.20456,-0.5393 -1.20456,-1.20455c0,-0.66526 0.5393,-1.20455 1.20456,-1.20455c0.66526,0 1.20455,0.5393 1.20455,1.20455z" fill="#ffffff" stroke="none" stroke-width="0" stroke-linecap="butt"/><path d="M219.24926,135.32587c0,0.66526 -0.5393,1.20455 -1.20456,1.20455c-0.66526,0 -1.20456,-0.5393 -1.20456,-1.20455c0,-0.66526 0.5393,-1.20455 1.20456,-1.20455c0.66526,0 1.20456,0.5393 1.20456,1.20455z" fill="#ffffff" stroke="none" stroke-width="0" stroke-linecap="butt"/><path d="M214.24926,130.32587c0,0.66526 -0.5393,1.20455 -1.20456,1.20455c-0.66526,0 -1.20456,-0.5393 -1.20456,-1.20455c0,-0.66526 0.5393,-1.20455 1.20456,-1.20455c0.66526,0 1.20456,0.5393 1.20456,1.20455z" fill="#ffffff" stroke="none" stroke-width="0" stroke-linecap="butt"/><path d="M209.24926,126.27272c0,0.66526 -0.5393,1.20455 -1.20456,1.20455c-0.66526,0 -1.20456,-0.5393 -1.20456,-1.20455c0,-0.66526 0.5393,-1.20455 1.20456,-1.20455c0.66526,0 1.20456,0.5393 1.20456,1.20455z" fill="#ffffff" stroke="none" stroke-width="0" stroke-linecap="butt"/><path d="M204.24926,136.80115c0,0.66526 -0.5393,1.20455 -1.20456,1.20455c-0.66526,0 -1.20456,-0.5393 -1.20456,-1.20455c0,-0.66526 0.5393,-1.20455 1.20456,-1.20455c0.66526,0 1.20456,0.5393 1.20456,1.20455z" fill="#ffffff" stroke="none" stroke-width="0" stroke-linecap="butt"/><path d="M211.74776,141.45908c0,0.66526 -0.53929,1.20455 -1.20455,1.20455c-0.66526,0 -1.20456,-0.5393 -1.20456,-1.20455c0,-0.66526 0.5393,-1.20455 1.20456,-1.20455c0.66526,0 1.20455,0.5393 1.20455,1.20455z" fill="#ffffff" stroke="none" stroke-width="0" stroke-linecap="butt"/><path d="M218.11003,147.82135c0,0.66526 -0.5393,1.20455 -1.20456,1.20455c-0.66526,0 -1.20456,-0.5393 -1.20456,-1.20455c0,-0.66526 0.5393,-1.20455 1.20456,-1.20455c0.66526,0 1.20456,0.5393 1.20456,1.20455z" fill="#ffffff" stroke="none" stroke-width="0" stroke-linecap="butt"/><path d="M229.20657,155.88796c0,0.66526 -0.53929,1.20455 -1.20455,1.20455c-0.66526,0 -1.20456,-0.5393 -1.20456,-1.20455c0,-0.66526 0.5393,-1.20455 1.20456,-1.20455c0.66526,0 1.20455,0.5393 1.20455,1.20455z" fill="#ffffff" stroke="none" stroke-width="0" stroke-linecap="butt"/><path d="M235.56884,159.97777c0,0.66526 -0.5393,1.20455 -1.20455,1.20455c-0.66526,0 -1.20456,-0.5393 -1.20456,-1.20455c0,-0.66526 0.5393,-1.20455 1.20456,-1.20455c0.66526,0 1.20455,0.5393 1.20455,1.20455z" fill="#ffffff" stroke="none" stroke-width="0" stroke-linecap="butt"/><path d="M277.46856,124.61408c0,0.66526 -0.5393,1.20455 -1.20456,1.20455c-0.66526,0 -1.20456,-0.5393 -1.20456,-1.20455c0,-0.66526 0.5393,-1.20455 1.20456,-1.20455c0.66526,0 1.20456,0.5393 1.20456,1.20455z" fill="#ffffff" stroke="none" stroke-width="0" stroke-linecap="butt"/><path d="M224.52078,140.59738c0,0.66526 -0.53929,1.20455 -1.20455,1.20455c-0.66526,0 -1.20456,-0.5393 -1.20456,-1.20455c0,-0.66526 0.5393,-1.20455 1.20456,-1.20455c0.66526,0 1.20455,0.5393 1.20455,1.20455z" fill="#ffffff" stroke="none" stroke-width="0" stroke-linecap="butt"/><path d="M224.54241,148.83622c0,0.66526 -0.5393,1.20455 -1.20455,1.20455c-0.66526,0 -1.20456,-0.5393 -1.20456,-1.20455c0,-0.66526 0.5393,-1.20455 1.20456,-1.20455c0.66526,0 1.20455,0.5393 1.20455,1.20455z" fill="#ffffff" stroke="none" stroke-width="0" stroke-linecap="butt"/><g fill="none" stroke="#ffffff" stroke-width="1.25" stroke-linecap="round"><path d="M260.70423,165.24475v8.90198"/><path d="M256.25324,169.69574h8.90198"/><path d="M257.55691,172.84306l6.29465,-6.29465"/><path d="M263.85156,172.84306l-6.29465,-6.29465"/></g><g fill="none" stroke="#ffffff" stroke-width="1.25" stroke-linecap="round"><path d="M218.74842,157.52731v6.61942"/><path d="M215.43871,160.83702h6.61942"/><path d="M216.4081,163.17734l4.68064,-4.68063"/><path d="M216.4081,158.4967l4.68064,4.68063"/></g><g fill="none" stroke="#ffffff" stroke-width="1.25" stroke-linecap="round"><path d="M270.94814,151.1794v5.02163"/><path d="M268.43732,153.69022h5.02163"/><path d="M269.17272,155.46563l3.55083,-3.55083"/><path d="M272.72355,155.46563l-3.55083,-3.55083"/></g><g fill="none" stroke="#ffffff" stroke-width="1.25" stroke-linecap="round"><path d="M249.07884,170.39615v-5.02163"/><path d="M251.58965,167.88534h-5.02163"/><path d="M247.30342,169.66075l3.55083,-3.55083"/><path d="M250.85425,169.66075l-3.55083,-3.55083"/></g><g fill="none" stroke="#ffffff" stroke-width="1.25" stroke-linecap="round"><path d="M243.4157,142.13568v-5.02163"/><path d="M240.90489,139.62487h5.02163"/><path d="M241.64029,141.40028l3.55083,-3.55083"/><path d="M241.64029,137.84945l3.55083,3.55083"/></g><g fill="none" stroke="#ffffff" stroke-width="1.25" stroke-linecap="round"><path d="M232.87865,128.74544v8.90198"/><path d="M228.42766,133.19643h8.90198"/><path d="M236.02598,130.0491l-6.29465,6.29465"/><path d="M229.73133,130.0491l6.29465,6.29465"/></g><g fill="none" stroke="#ffffff" stroke-width="1.25" stroke-linecap="round"><path d="M260.51923,121.69113v8.90198"/><path d="M256.06824,126.14212h8.90198"/><path d="M263.66656,122.9948l-6.29465,6.29465"/><path d="M263.66656,129.28945l-6.29465,-6.29465"/></g><g fill="none" stroke="#ffffff" stroke-width="1.25" stroke-linecap="round"><path d="M248.67157,132.66905v-6.61942"/><path d="M245.36186,129.35934h6.61942"/><path d="M251.01189,127.01902l-4.68064,4.68063"/><path d="M251.01189,131.69966l-4.68064,-4.68063"/></g><g fill="none" stroke="#ffffff" stroke-width="1.25" stroke-linecap="round"><path d="M221.03098,121.69114v8.90198"/><path d="M216.57999,126.14213h8.90198"/><path d="M224.1783,122.9948l-6.29465,6.29465"/><path d="M224.1783,129.28945l-6.29465,-6.29465"/></g><g fill="none" stroke="#ffffff" stroke-width="1.25" stroke-linecap="round"><path d="M207.81376,158.00545v-6.61942"/><path d="M204.50405,154.69574h6.61942"/><path d="M210.15408,152.35542l-4.68064,4.68063"/><path d="M210.15408,157.03606l-4.68064,-4.68063"/></g><g fill="none" stroke="#ffffff" stroke-width="1.25" stroke-linecap="round"><path d="M272.66005,169.66813v-6.61942"/><path d="M275.96976,166.35842h-6.61942"/><path d="M270.31973,168.69874l4.68064,-4.68063"/><path d="M270.31973,164.0181l4.68064,4.68063"/></g><path d="M279.72885,115.52941v1.83331h-79.4577v-1.83331z" fill="#ffffff" stroke="none" stroke-width="none" stroke-linecap="butt"/><g fill="none" stroke="#ffffff" stroke-width="1.25" stroke-linecap="round"><path d="M208.46431,165.53861v8.67372"/><path d="M212.80117,169.87548h-8.67373"/><path d="M211.53094,166.80885l-6.13325,6.13324"/><path d="M211.53094,172.9421l-6.13325,-6.13324"/></g></g></g></g></svg>